<?xml version="1.0" encoding="utf-8"?>
<!-- Generator: Adobe Illustrator 25.4.1, SVG Export Plug-In . SVG Version: 6.00 Build 0)  -->
<svg version="1.0" id="katman_1" xmlns="http://www.w3.org/2000/svg" xmlns:xlink="http://www.w3.org/1999/xlink" x="0px" y="0px"
	 viewBox="0 0 800 600" style="enable-background:new 0 0 800 600;" xml:space="preserve">
<style type="text/css">
	.st0{fill:#1E1E1E;}
</style>
<path class="st0" d="M362.3,349.5V256h17.5l28.6,44.2l28.6-44.2h17.5v93.6h-16.4v-67.1l-29.5,44h-0.5l-29.3-43.8v66.9L362.3,349.5z
	 M470.5,349.5l41.1-94.3h15.2l41.3,94.3h-17.3l-9.5-22.6H497l-9.7,22.6H470.5z M503,312.5h32.3l-16.2-37.3L503,312.5z M595.1,349.6
	v-78.4h-29.8V256h75.9v15.2h-29.8v78.4L595.1,349.6z M658.8,349.6V256h16.4v39h44.8v-39h16.4v93.6h-16.4v-39.4h-44.8v39.4
	L658.8,349.6z M232.6,290.6c-5.2-5.2-5.2-13.7,0-18.9c5.2-5.2,13.7-5.2,18.9,0c5.2,5.2,5.2,13.7,0,18.9
	C246.3,295.6,237.9,295.6,232.6,290.6L232.6,290.6z M187.6,335.5c-3.9-4-3.9-10.4,0-14.3s10.4-3.9,14.3,0c3.9,3.9,3.9,10.3,0,14.3
	c-3.9,3.9-10.2,4-14.1,0.1C187.8,335.6,187.7,335.5,187.6,335.5L187.6,335.5z M258.9,311.8c-3.9-4-3.9-10.4,0-14.3
	c4-3.9,10.4-3.9,14.3,0c3.9,3.9,3.9,10.3,0,14.3C269.3,315.7,262.9,315.7,258.9,311.8L258.9,311.8z M235.2,335.5
	c-3.9-3.9-3.9-10.4,0-14.3s10.4-3.9,14.3,0c3.9,3.9,3.9,10.3,0,14.3c-3.7,3.9-9.9,4.2-13.8,0.5C235.5,335.8,235.3,335.6,235.2,335.5
	z M285,333.1c-2.6-2.6-2.6-6.8,0-9.5s6.8-2.6,9.5,0s2.6,6.8,0,9.5c0,0,0,0,0,0c-2.4,2.6-6.4,2.8-9.1,0.4
	C285.3,333.4,285.1,333.3,285,333.1L285,333.1z M261.2,356.9c-2.6-2.6-2.6-6.8,0-9.5s6.8-2.6,9.5,0s2.6,6.8,0,9.5c0,0,0,0,0,0
	c-2.5,2.6-6.7,2.7-9.3,0.1C261.3,357,261.3,357,261.2,356.9L261.2,356.9z M208.9,314.2c-5.2-5.2-5.2-13.7,0-18.9
	c5.2-5.2,13.7-5.2,18.9,0c5.2,5.2,5.2,13.7,0,18.9C222.5,319.3,214.2,319.3,208.9,314.2L208.9,314.2z M208.9,266.8
	c-5.2-5.2-5.2-13.7,0-18.9c5.2-5.2,13.7-5.2,18.9,0c5.2,5.2,5.2,13.7,0,18.9C222.5,271.8,214.2,271.9,208.9,266.8L208.9,266.8z
	 M185.1,290.5c-5.2-5.2-5.2-13.7,0-18.9c5.2-5.2,13.7-5.2,18.9,0c5.2,5.2,5.2,13.7,0,18.9C198.7,295.6,190.4,295.6,185.1,290.5
	L185.1,290.5z M137.3,290.5c-5.2-5.2-5.2-13.7,0-18.9c5.2-5.2,13.7-5.2,18.9,0c5.2,5.2,5.2,13.7,0,18.9
	C151,295.6,142.6,295.6,137.3,290.5L137.3,290.5z M92.1,335.5c-3.9-3.9-3.9-10.4,0-14.3s10.4-3.9,14.3,0c3.9,3.9,3.9,10.3,0,14.3
	c-3.7,3.9-9.9,4.2-13.8,0.5C92.4,335.8,92.3,335.6,92.1,335.5z M163.7,311.7c-3.9-3.9-3.9-10.4,0-14.3s10.4-3.9,14.3,0
	c3.9,3.9,3.9,10.3,0,14.3C174,315.7,167.6,315.7,163.7,311.7L163.7,311.7z M139.9,335.5c-3.9-3.9-3.9-10.4,0-14.3s10.4-3.9,14.3,0
	c3.9,3.9,3.9,10.3,0,14.3c-3.7,3.9-9.9,4.2-13.8,0.5C140.2,335.8,140,335.6,139.9,335.5z M47.1,333.1c-2.6-2.6-2.6-6.8,0-9.5
	s6.8-2.6,9.5,0s2.6,6.8,0,9.5c0,0,0,0,0,0c-2.4,2.6-6.4,2.8-9.1,0.4C47.4,333.4,47.3,333.3,47.1,333.1L47.1,333.1z M70.9,356.9
	c-2.6-2.6-2.6-6.8,0-9.5c2.6-2.6,6.8-2.6,9.5,0s2.6,6.8,0,9.5c0,0,0,0,0,0c-2.4,2.6-6.4,2.8-9.1,0.4C71.2,357.2,71,357,70.9,356.9
	L70.9,356.9z M166,356.9c-2.6-2.6-2.6-6.8,0-9.5s6.8-2.6,9.5,0s2.6,6.8,0,9.5c0,0,0,0,0,0c-2.5,2.6-6.7,2.7-9.3,0.1
	C166,357,166,357,166,356.9L166,356.9z M68.4,311.7c-3.9-4-3.9-10.4,0-14.3c4-3.9,10.4-3.9,14.3,0c3.9,3.9,3.9,10.3,0,14.3
	C78.7,315.7,72.3,315.7,68.4,311.7L68.4,311.7z M113.6,314.2c-5.2-5.1-5.3-13.5-0.2-18.7c0.1-0.1,0.1-0.1,0.2-0.2
	c5.3-5.1,13.9-5.3,18.9,0c5.2,5.1,5.3,13.5,0.2,18.7c-0.1,0.1-0.1,0.1-0.2,0.2C127.2,319.3,118.9,319.3,113.6,314.2L113.6,314.2z
	 M113.6,266.8c-5.2-5.2-5.2-13.7,0-18.9c5.2-5.2,13.7-5.2,18.9,0c5.2,5.2,5.2,13.7,0,18.9C127.2,271.8,118.9,271.9,113.6,266.8
	L113.6,266.8z M89.8,290.5c-5.2-5.2-5.2-13.7,0-18.9c5.2-5.2,13.7-5.2,18.9,0c5.2,5.2,5.2,13.7,0,18.9
	C103.5,295.6,95.1,295.6,89.8,290.5L89.8,290.5z"/>
</svg>
